<svg xmlns="http://www.w3.org/2000/svg" width="24" height="24" viewBox="0 0 24 24"><defs><style>.a{fill:#fff;opacity:0.003;}.b{fill:#ff5050;}</style></defs><g transform="translate(-408 -358)"><rect class="a" width="24" height="24" transform="translate(408 358)"/><path class="b" d="M-6795,143h-12a4,4,0,0,1-4-4V127a4,4,0,0,1,4-4h12a4,4,0,0,1,4,4v12A4,4,0,0,1-6795,143Zm-10.432-11.75a.647.647,0,0,0-.46.191l-.918.918a.65.65,0,0,0-.191.462.644.644,0,0,0,.191.458l4.224,4.225a.654.654,0,0,0,.46.19.644.644,0,0,0,.46-.19l7.475-7.475a.646.646,0,0,0,.191-.46.646.646,0,0,0-.191-.46l-.917-.92a.649.649,0,0,0-.46-.19.644.644,0,0,0-.459.19l-6.1,6.1-2.846-2.846A.642.642,0,0,0-6805.431,131.25Z" transform="translate(7221 237)"/></g></svg>