<svg xmlns="http://www.w3.org/2000/svg" width="40" height="40" viewBox="0 0 40 40"><defs><style>.a{fill:#ff5050;}.b{fill:#fff;}</style></defs><g transform="translate(-694 -179.649)"><circle class="a" cx="20" cy="20" r="20" transform="translate(694 179.649)"/><path class="b" d="M13.085,22.221,23.591,11.715a.914.914,0,0,0,0-1.292L22.3,9.131a.914.914,0,0,0-1.292,0L12.439,17.7l-4-4a.914.914,0,0,0-1.292,0L5.855,14.99a.914.914,0,0,0,0,1.292l5.938,5.938a.914.914,0,0,0,1.292,0Z" transform="translate(699.102 185.101)"/></g></svg>