<svg xmlns="http://www.w3.org/2000/svg" width="24" height="24" viewBox="0 0 24 24"><defs><style>.a{fill:#fff;opacity:0;}.b{fill:#ff5050;}</style></defs><g transform="translate(28.67 17.834)"><rect class="a" width="24" height="24" transform="translate(-28.67 -17.834)"/><path class="b" d="M5.473,12a.486.486,0,0,1-.374-.149L.136,6.381A.827.827,0,0,1,0,5.972a.827.827,0,0,1,.136-.409l5-5.4a.464.464,0,0,1,.714,0,.575.575,0,0,1,0,.781L1.224,5.972l4.623,5.06a.575.575,0,0,1,0,.781A.526.526,0,0,1,5.473,12Z" transform="translate(-10.67 -8.834) rotate(90)"/></g></svg>