<svg xmlns="http://www.w3.org/2000/svg" width="24" height="24" viewBox="0 0 24 24"><defs><style>.a{fill:#fff;opacity:0;}.b{fill:#ff5050;}</style></defs><g transform="translate(-42.67 13)"><rect class="a" width="24" height="24" transform="translate(42.67 -13)"/><path class="b" d="M5.473,0A.486.486,0,0,0,5.1.149L.136,5.619A.827.827,0,0,0,0,6.028a.827.827,0,0,0,.136.409l5,5.4a.464.464,0,0,0,.714,0,.575.575,0,0,0,0-.781L1.224,6.028,5.847.967a.575.575,0,0,0,0-.781A.526.526,0,0,0,5.473,0Z" transform="translate(48.67 2) rotate(-90)"/></g></svg>