<svg xmlns="http://www.w3.org/2000/svg" width="24" height="24" viewBox="0 0 24 24"><defs><style>.a{fill:#fff;opacity:0;}.b{fill:#ff5050;}</style></defs><g transform="translate(-154 -235)"><rect class="a" width="24" height="24" transform="translate(154 235)"/><path class="b" d="M13.5,1H9.75L9.456.416A.75.75,0,0,0,8.784,0H5.212a.741.741,0,0,0-.669.416L4.25,1H.5a.5.5,0,0,0-.5.5v1A.5.5,0,0,0,.5,3h13a.5.5,0,0,0,.5-.5v-1A.5.5,0,0,0,13.5,1ZM1.662,14.594A1.5,1.5,0,0,0,3.159,16h7.681a1.5,1.5,0,0,0,1.5-1.406L13,4H1Z" transform="translate(159 239)"/></g></svg>