<svg xmlns="http://www.w3.org/2000/svg" xmlns:xlink="http://www.w3.org/1999/xlink" width="125.551" height="26" viewBox="0 0 125.551 26"><defs><style>.a{fill:#1a1311;}.b{fill:#ff000e;}.aa,.ab,.ac,.c,.d,.e,.f,.g,.h,.i,.j,.k,.l,.m,.n,.o,.p,.q,.r,.s,.t,.u,.v,.w,.x,.y,.z{fill-rule:evenodd;}.c{fill:url(#a);}.d{fill:url(#b);}.e{fill:#474645;}.f{fill:#fff;}.g{fill:#3b3938;}.h{fill:url(#c);}.i{fill:url(#d);}.j{fill:url(#e);}.k{fill:#241e1c;}.l{fill:url(#f);}.m{fill:url(#g);}.n{fill:url(#h);}.o{fill:url(#i);}.p{fill:url(#j);}.q{fill:url(#k);}.r{fill:url(#l);}.s{fill:url(#m);}.t{fill:url(#n);}.u{fill:url(#o);}.v{fill:url(#p);}.w{fill:url(#q);}.x{fill:url(#r);}.y{fill:url(#s);}.z{fill:url(#t);}.aa{fill:url(#u);}.ab{fill:url(#v);}.ac{fill:url(#w);}</style><linearGradient id="a" x1="0.5" y1="1.022" x2="0.5" y2="-0.104" gradientUnits="objectBoundingBox"><stop offset="0" stop-color="#c9c9ca"/><stop offset="0.002" stop-color="#c3c3c4"/><stop offset="0.014" stop-color="#9f9f9f"/><stop offset="0.026" stop-color="#838283"/><stop offset="0.037" stop-color="#6f6e6e"/><stop offset="0.049" stop-color="#636262"/><stop offset="0.061" stop-color="#5f5e5e"/><stop offset="0.073" stop-color="#4c4a4a"/><stop offset="0.089" stop-color="#3c3939"/><stop offset="0.106" stop-color="#33302f"/><stop offset="0.127" stop-color="#302d2c"/><stop offset="0.199" stop-color="#282322"/><stop offset="0.285" stop-color="#241e1c"/><stop offset="0.339" stop-color="#2e2a28"/><stop offset="0.388" stop-color="#3b3938"/><stop offset="0.618" stop-color="#efefef"/><stop offset="0.666" stop-color="#f1f1f1"/><stop offset="0.692" stop-color="#f9f9f9"/><stop offset="0.697" stop-color="#fcfcfc"/><stop offset="0.739" stop-color="#f6f6f6"/><stop offset="0.741" stop-color="#f4f4f4"/><stop offset="0.763" stop-color="#e8e9e9"/><stop offset="0.794" stop-color="#e1e2e2"/><stop offset="0.879" stop-color="#e0e1e1"/><stop offset="0.963" stop-color="#b8b9b9"/><stop offset="1" stop-color="#a6a7a7"/></linearGradient><linearGradient id="b" x1="0.5" y1="-0.023" x2="0.5" y2="1.068" gradientUnits="objectBoundingBox"><stop offset="0" stop-color="#241e1c"/><stop offset="0.083" stop-color="#292321"/><stop offset="0.193" stop-color="#383332"/><stop offset="0.319" stop-color="#524e4d"/><stop offset="0.454" stop-color="#757373"/><stop offset="0.537" stop-color="#8e8e8f"/><stop offset="1" stop-color="#f8f8f8"/></linearGradient><linearGradient id="c" x1="0.938" y1="0.453" x2="0.061" y2="0.688" gradientUnits="objectBoundingBox"><stop offset="0" stop-color="#afb0b1"/><stop offset="1" stop-color="#828283"/></linearGradient><linearGradient id="d" x1="0.407" y1="-0.04" x2="0.604" y2="1.098" gradientUnits="objectBoundingBox"><stop offset="0" stop-color="#a6a7a7"/><stop offset="0.06" stop-color="#d4d5d5"/><stop offset="0.13" stop-color="#ebebeb"/><stop offset="0.242" stop-color="#fff"/><stop offset="0.358" stop-color="#fafafa"/><stop offset="0.515" stop-color="#d4d5d5"/><stop offset="1" stop-color="#474645"/></linearGradient><linearGradient id="e" x1="-0.129" y1="0.779" x2="1.069" y2="0.11" gradientUnits="objectBoundingBox"><stop offset="0" stop-color="#6a6a6a"/><stop offset="0.252" stop-color="#8e8e8f"/><stop offset="0.272" stop-color="#979798"/><stop offset="0.4" stop-color="#cdcdcd"/><stop offset="0.497" stop-color="#efefef"/><stop offset="0.549" stop-color="#fcfcfc"/><stop offset="0.727" stop-color="#fcfcfc"/><stop offset="0.867" stop-color="#d4d5d5"/><stop offset="1" stop-color="#c9c9ca"/></linearGradient><linearGradient id="f" x1="0.932" y1="-0.034" x2="-0.179" y2="0.924" gradientUnits="objectBoundingBox"><stop offset="0" stop-color="#241e1c"/><stop offset="0.21" stop-color="#6a6a6a"/><stop offset="0.28" stop-color="#9a9b9b"/><stop offset="0.39" stop-color="#c9c9ca"/><stop offset="0.51" stop-color="#b2b2b3"/><stop offset="0.552" stop-color="#969595"/><stop offset="0.615" stop-color="#737070"/><stop offset="0.68" stop-color="#565251"/><stop offset="0.749" stop-color="#403b3a"/><stop offset="0.822" stop-color="#302a29"/><stop offset="0.901" stop-color="#27211f"/><stop offset="1" stop-color="#241e1c"/></linearGradient><linearGradient id="g" x1="0.13" y1="-0.167" x2="0.731" y2="1.127" gradientUnits="objectBoundingBox"><stop offset="0" stop-color="#767676"/><stop offset="0.002" stop-color="#757575"/><stop offset="0.183" stop-color="#585655"/><stop offset="0.369" stop-color="#413d3c"/><stop offset="0.563" stop-color="#302b2a"/><stop offset="0.767" stop-color="#27211f"/><stop offset="1" stop-color="#241e1c"/></linearGradient><linearGradient id="h" x1="0.746" y1="1.216" x2="0.142" y2="-0.207" gradientUnits="objectBoundingBox"><stop offset="0" stop-color="#241e1c"/><stop offset="0.212" stop-color="#241e1c"/><stop offset="0.424" stop-color="#302d2c"/><stop offset="0.474" stop-color="#363332"/><stop offset="0.543" stop-color="#474544"/><stop offset="0.6" stop-color="#5a5959"/><stop offset="0.83" stop-color="#c4c5c5"/><stop offset="0.94" stop-color="#dcdcdc"/><stop offset="1" stop-color="#ebebeb"/></linearGradient><linearGradient id="i" x1="-0.16" y1="0.83" x2="1.249" y2="-0.086" gradientUnits="objectBoundingBox"><stop offset="0" stop-color="#3b3938"/><stop offset="0.068" stop-color="#3f3d3c"/><stop offset="0.12" stop-color="#474645"/><stop offset="0.22" stop-color="#535252"/><stop offset="0.41" stop-color="#ebebeb"/><stop offset="0.58" stop-color="#ebebeb"/><stop offset="0.79" stop-color="#474645"/><stop offset="0.83" stop-color="#3e3c3b"/><stop offset="0.88" stop-color="#3b3938"/><stop offset="1" stop-color="#302d2c"/></linearGradient><linearGradient id="j" x1="1.474" y1="0.5" x2="-0.756" y2="0.5" gradientUnits="objectBoundingBox"><stop offset="0" stop-color="#241e1c"/><stop offset="0.375" stop-color="#282321"/><stop offset="0.869" stop-color="#363332"/><stop offset="1" stop-color="#3b3938"/></linearGradient><linearGradient id="k" x1="-0.129" y1="0.062" x2="1.12" y2="0.991" gradientUnits="objectBoundingBox"><stop offset="0" stop-color="#241e1c"/><stop offset="1" stop-color="#302d2c"/></linearGradient><linearGradient id="l" x1="0.035" y1="-0.544" x2="0.644" y2="1.124" gradientUnits="objectBoundingBox"><stop offset="0" stop-color="#1a1311"/><stop offset="0.19" stop-color="#1a1311"/><stop offset="0.564" stop-color="#302d2c"/><stop offset="0.629" stop-color="#343130"/><stop offset="0.701" stop-color="#413e3d"/><stop offset="0.777" stop-color="#565454"/><stop offset="0.854" stop-color="#737373"/><stop offset="0.861" stop-color="#767676"/><stop offset="0.862" stop-color="#767676"/><stop offset="0.893" stop-color="#838384"/><stop offset="0.932" stop-color="#8b8b8c"/><stop offset="1" stop-color="#8e8e8f"/></linearGradient><linearGradient id="m" x1="0.522" y1="0.508" x2="1.096" y2="0.528" gradientUnits="objectBoundingBox"><stop offset="0" stop-color="#9fa0a0"/><stop offset="0.084" stop-color="#acadad"/><stop offset="0.271" stop-color="#c5c5c6"/><stop offset="0.468" stop-color="#d7d7d8"/><stop offset="0.677" stop-color="#e1e1e2"/><stop offset="0.921" stop-color="#e5e5e6"/><stop offset="1" stop-color="#f6f6f6"/></linearGradient><linearGradient id="n" x1="0.838" y1="0.819" x2="-0.087" y2="-0.029" gradientUnits="objectBoundingBox"><stop offset="0" stop-color="#302d2c"/><stop offset="0.4" stop-color="#767676"/><stop offset="0.68" stop-color="#a6a7a7"/><stop offset="1" stop-color="#fff"/></linearGradient><linearGradient id="o" x1="0.973" y1="-0.142" x2="0.229" y2="1.012" gradientUnits="objectBoundingBox"><stop offset="0" stop-color="#1a1311"/><stop offset="0.685" stop-color="#302d2c"/><stop offset="1" stop-color="#474645"/></linearGradient><linearGradient id="p" x1="7.852" y1="-10.935" x2="-6.671" y2="12.006" gradientUnits="objectBoundingBox"><stop offset="0" stop-color="#1a1311"/><stop offset="1" stop-color="#302d2c"/></linearGradient><linearGradient id="q" x1="1.405" y1="0.869" x2="-0.292" y2="0.051" gradientUnits="objectBoundingBox"><stop offset="0" stop-color="#1a1311"/><stop offset="0.71" stop-color="#474645"/><stop offset="1" stop-color="#a6a7a7"/></linearGradient><linearGradient id="r" x1="0.185" y1="-0.408" x2="0.84" y2="1.205" gradientUnits="objectBoundingBox"><stop offset="0" stop-color="#d4d5d5"/><stop offset="0.22" stop-color="#a6a7a7"/><stop offset="0.47" stop-color="#6a6a6a"/><stop offset="0.507" stop-color="#605f5f"/><stop offset="0.608" stop-color="#4a4948"/><stop offset="0.717" stop-color="#3b3938"/><stop offset="0.839" stop-color="#322f2f"/><stop offset="1" stop-color="#302d2c"/></linearGradient><linearGradient id="s" x1="1.195" y1="0.166" x2="-0.109" y2="0.954" gradientUnits="objectBoundingBox"><stop offset="0" stop-color="#241e1c"/><stop offset="0.3" stop-color="#26201f"/><stop offset="0.48" stop-color="#292422"/><stop offset="0.667" stop-color="#292422"/><stop offset="1" stop-color="#302d2c"/></linearGradient><linearGradient id="t" x1="1.043" y1="0.5" x2="-0.276" y2="0.5" gradientUnits="objectBoundingBox"><stop offset="0" stop-color="#302d2c"/><stop offset="0.188" stop-color="#585655"/><stop offset="0.461" stop-color="#8d8c8b"/><stop offset="0.698" stop-color="#b3b3b3"/><stop offset="0.885" stop-color="#cbcccc"/><stop offset="1" stop-color="#d4d5d5"/></linearGradient><linearGradient id="u" x1="-0.132" x2="1.177" y2="0.973" gradientUnits="objectBoundingBox"><stop offset="0" stop-color="#241e1c"/><stop offset="0.204" stop-color="#282321"/><stop offset="0.472" stop-color="#373332"/><stop offset="0.691" stop-color="#474645"/><stop offset="1" stop-color="#535252"/></linearGradient><linearGradient id="v" x1="0.386" y1="-0.245" x2="0.66" y2="1.018" gradientUnits="objectBoundingBox"><stop offset="0" stop-color="#241e1c"/><stop offset="0.261" stop-color="#292422"/><stop offset="0.467" stop-color="#343131"/><stop offset="0.501" stop-color="#393636"/><stop offset="0.546" stop-color="#494747"/><stop offset="0.597" stop-color="#636262"/><stop offset="0.652" stop-color="#878787"/><stop offset="0.691" stop-color="#a6a7a7"/><stop offset="0.81" stop-color="#a6a7a7"/><stop offset="1" stop-color="#b2b2b3"/></linearGradient><linearGradient id="w" x1="0.576" y1="-0.18" x2="0.357" y2="1.093" gradientUnits="objectBoundingBox"><stop offset="0" stop-color="#767676"/><stop offset="0.227" stop-color="#a4a4a4"/><stop offset="0.612" stop-color="#fcfcfc"/><stop offset="0.685" stop-color="#f8f8f8"/><stop offset="0.743" stop-color="#efeeee"/><stop offset="0.796" stop-color="#dedede"/><stop offset="0.846" stop-color="#c7c6c6"/><stop offset="0.894" stop-color="#a8a8a7"/><stop offset="0.94" stop-color="#838282"/><stop offset="0.984" stop-color="#585756"/><stop offset="1" stop-color="#474645"/><stop offset="1" stop-color="#cfd0d0"/><stop offset="1" stop-color="#ebebeb"/></linearGradient></defs><g transform="translate(31.604 4.301)"><path class="a" d="M393.933,449.42H414.81v-4.175H397.855A4.245,4.245,0,0,0,393.933,449.42Z" transform="translate(-369.576 -445.245)"/><path class="a" d="M393.932,480.676h5.219V473.89h15.658v-4.175H393.932Z" transform="translate(-369.575 -463.278)"/><path class="a" d="M317.255,445.245H301.339v4.175h13.394c1.065,0,2.264.414,2.264,2.023v5.1a1.992,1.992,0,0,1-2.264,1.921h-8.175v-6.786h-5.219v10.961h15.916a5.017,5.017,0,0,0,4.961-4.623v-8.391A4.676,4.676,0,0,0,317.255,445.245Z" transform="translate(-301.339 -445.245)"/><rect class="a" width="5.219" height="17.397" transform="translate(73.07)"/><path class="a" d="M506.821,445.245H491.169c-1.8,0-4.387.808-4.492,4.175h20.144Z" transform="translate(-437.924 -445.245)"/><path class="a" d="M501.93,469.715H486.524c.064,2.922,2.138,4.175,4.533,4.175h8.926c1.016,0,2.307-.061,2.3,1.368-.008,1.346-1.158,1.242-2.3,1.242H487.106v4.176H501.93c3.58,0,5.471-1.216,5.471-5.417S505.51,469.715,501.93,469.715Z" transform="translate(-437.811 -463.278)"/><path class="a" d="M611.942,483.2H605.7l7.418,7.413h6.467Z" transform="translate(-525.636 -473.216)"/><path class="b" d="M619.032,445.245h-6.1l-7.844,7.4-.01.01h6.036Z" transform="translate(-525.18 -445.245)"/></g><path class="c" d="M192.554,428.908h0a12.952,12.952,0,1,0,0,25.9h0a12.952,12.952,0,1,0,0-25.9Zm0,24.654h0a11.708,11.708,0,1,1,0-23.416h0a11.708,11.708,0,1,1,0,23.416Z" transform="translate(-179.505 -428.855)"/><path class="d" d="M196.075,433.632h0a11.7,11.7,0,1,0,0,23.407h0a11.7,11.7,0,1,0,0-23.407Zm0,22.662h0a10.954,10.954,0,1,1,0-21.909h0a10.954,10.954,0,1,1,0,21.909Z" transform="translate(-183.026 -432.336)"/><path class="e" d="M192.447,428.707h0a13,13,0,1,0,0,26h0a13,13,0,1,0,0-26Zm0,25.911h0a12.909,12.909,0,1,1,0-25.817h0a12.909,12.909,0,1,1,0,25.817Z" transform="translate(-179.397 -428.707)"/><path class="f" d="M195.784,433.246h0a11.808,11.808,0,1,0,0,23.615h0a11.808,11.808,0,1,0,0-23.615Zm0,23.409h0a11.6,11.6,0,1,1,0-23.2h0a11.6,11.6,0,1,1,0,23.2Z" transform="translate(-182.735 -432.052)"/><path class="g" d="M198.042,436.325h0a11,11,0,1,0,0,22h0a11,11,0,1,0,0-22Zm0,21.9h0a10.9,10.9,0,1,1,0-21.809h0a10.9,10.9,0,1,1,0,21.809Z" transform="translate(-184.993 -434.321)"/><path class="h" d="M207.4,457.74a10.1,10.1,0,0,1,3.1-7.278,9.136,9.136,0,0,0-6.3,8.373c0,5,4.583,9.055,10.244,9.055a10.47,10.47,0,0,0,1.341-.075A10.383,10.383,0,0,1,207.4,457.74Z" transform="translate(-197.68 -444.837)"/><path class="i" d="M204.357,458.835a9.183,9.183,0,0,1,6.131-8.359.043.043,0,0,0,.015-.014,9.136,9.136,0,0,0-6.3,8.373c0,3.956,2.868,7.326,6.87,8.558C207.151,466.092,204.357,462.753,204.357,458.835Z" transform="translate(-197.68 -444.837)"/><path class="j" d="M200.384,450.462a10.505,10.505,0,0,0-9.91,10.489,10.669,10.669,0,0,0,.185,1.946,6.521,6.521,0,0,1,3.472-4.913A9.331,9.331,0,0,1,200.384,450.462Z" transform="translate(-187.56 -444.78)"/><path class="k" d="M194.06,479.955h0a3.616,3.616,0,0,1,.18-.344,2.924,2.924,0,0,1,.408-.553,6.5,6.5,0,0,0-3.471,4.912l.349.361h0A6.413,6.413,0,0,1,194.06,479.955Z" transform="translate(-188.078 -465.875)"/><path class="l" d="M189.489,460.055a10.509,10.509,0,0,1,9.91-10.489h0l-.611-.32a10.437,10.437,0,0,0-9.651,10.414c0,.216,0,.424.018.625a7.81,7.81,0,0,0,.519,1.715A10.67,10.67,0,0,1,189.489,460.055Z" transform="translate(-186.575 -443.884)"/><path class="m" d="M212.925,488.962c-5.661,0-10.244-4.054-10.244-9.055,0-.289.018-.567.045-.851h0a2.888,2.888,0,0,0-.407.552,3.108,3.108,0,0,0-.181.345c.131,5.143,4.7,9.271,10.319,9.271.155,0,.321,0,.478-.011a13.686,13.686,0,0,0,1.332-.326A10.47,10.47,0,0,1,212.925,488.962Z" transform="translate(-196.155 -465.91)"/><path class="n" d="M213.4,488.962c-5.661,0-10.244-4.054-10.244-9.055,0-.289.018-.567.045-.851h0a2.843,2.843,0,0,0-.409.553c0,.11-.01.219-.01.326,0,5.017,4.6,9.083,10.267,9.083a12.242,12.242,0,0,0,1.655-.117l.039-.014A10.47,10.47,0,0,1,213.4,488.962Z" transform="translate(-196.63 -465.91)"/><path class="o" d="M189.816,460.382a10.509,10.509,0,0,1,9.91-10.489h0l-.385-.2a10.312,10.312,0,0,0-9.76,10.3,10.67,10.67,0,0,0,.1,1.478,7.223,7.223,0,0,0,.316.863A10.67,10.67,0,0,1,189.816,460.382Z" transform="translate(-186.902 -444.211)"/><path class="p" d="M194.24,479.611a2.85,2.85,0,0,1,.408-.553,6.5,6.5,0,0,0-3.471,4.912c.043.051.248.256.258.267A6.454,6.454,0,0,1,194.24,479.611Z" transform="translate(-188.078 -465.875)"/><path class="q" d="M224.752,467.591a10.542,10.542,0,0,1-4.23-2.154h0l-.619-.322-.157-.38.005-.005a9.97,9.97,0,0,1-.136-13.88h0l-.152-.388a10.1,10.1,0,0,0-3.1,7.278,10.383,10.383,0,0,0,8.386,10.075Z" transform="translate(-206.641 -444.837)"/><path class="r" d="M220.073,465.2l-.169-.087-.038-.105a9.956,9.956,0,0,1-.3-14.287l-.1-.261a10.1,10.1,0,0,0-3.1,7.278,10.383,10.383,0,0,0,8.386,10.075v-.181A10.556,10.556,0,0,1,220.073,465.2Z" transform="translate(-206.641 -444.837)"/><path class="s" d="M218.115,450.069a10.118,10.118,0,0,1-3.1,7.278,9.134,9.134,0,0,0,6.3-8.363c0-5.009-4.585-9.062-10.238-9.062a11.9,11.9,0,0,0-1.345.072A10.386,10.386,0,0,1,218.115,450.069Z" transform="translate(-201.751 -436.972)"/><path class="t" d="M229.816,471.322a10.474,10.474,0,0,0,9.91-10.489,9.98,9.98,0,0,0-.183-1.948,6.486,6.486,0,0,1-3.471,4.919A9.319,9.319,0,0,1,229.816,471.322Z" transform="translate(-216.553 -451.004)"/><path class="u" d="M254.208,461.905h0a3.083,3.083,0,0,1-.588.891,6.479,6.479,0,0,0,3.466-4.912l-.349-.357A6.427,6.427,0,0,1,254.208,461.905Z" transform="translate(-234.096 -449.981)"/><path class="v" d="M239.726,460.833a10.47,10.47,0,0,1-9.878,10.484l-.032.005.614.322a10.437,10.437,0,0,0,9.656-10.416c0-.21-.009-.412-.021-.63a7.986,7.986,0,0,0-.521-1.714A9.98,9.98,0,0,1,239.726,460.833Z" transform="translate(-216.553 -451.005)"/><path class="w" d="M211.075,439.192c5.653,0,10.238,4.054,10.238,9.062a8.382,8.382,0,0,1-.044.845,2.816,2.816,0,0,0,.593-.9c-.126-5.141-4.706-9.271-10.321-9.271-.162,0-.321.009-.482.013-.059.01-1.01.2-1.33.32A11.9,11.9,0,0,1,211.075,439.192Z" transform="translate(-201.751 -436.242)"/><path class="x" d="M211.075,439.768c5.653,0,10.238,4.054,10.238,9.062,0,.281-.016.57-.043.844a1.475,1.475,0,0,0,.416-.546c0-.111,0-.224,0-.333,0-5.018-4.6-9.084-10.269-9.084a11.361,11.361,0,0,0-1.652.115l-.037.013A11.9,11.9,0,0,1,211.075,439.768Z" transform="translate(-201.75 -436.816)"/><path class="y" d="M239.726,460.833a10.47,10.47,0,0,1-9.878,10.484l-.032.005.4.208a10.3,10.3,0,0,0,9.751-10.3,11.054,11.054,0,0,0-.105-1.472,6.726,6.726,0,0,0-.316-.872A9.98,9.98,0,0,1,239.726,460.833Z" transform="translate(-216.553 -451.005)"/><path class="z" d="M254.016,462.522a2.48,2.48,0,0,1-.416.547,6.5,6.5,0,0,0,3.471-4.919l-.256-.263A6.565,6.565,0,0,1,254.016,462.522Z" transform="translate(-234.081 -450.247)"/><path class="aa" d="M209.73,440.424a10.651,10.651,0,0,1,4.234,2.152l.611.32.152.388a9.957,9.957,0,0,1,.131,13.885h0l.157.38a10.118,10.118,0,0,0,3.1-7.278,10.386,10.386,0,0,0-8.385-10.075Z" transform="translate(-201.751 -437.173)"/><path class="ab" d="M214.411,442.809l.163.087.039.1a9.975,9.975,0,0,1,.3,14.3l.1.248a10.118,10.118,0,0,0,3.1-7.278,10.386,10.386,0,0,0-8.385-10.075v.189A10.589,10.589,0,0,1,214.411,442.809Z" transform="translate(-201.751 -437.173)"/><path class="ac" d="M234.385,450.383a9.173,9.173,0,0,1-6.136,8.351l-.005,0-.01.009a9.134,9.134,0,0,0,6.3-8.363c0-3.96-2.873-7.328-6.865-8.563C231.593,443.12,234.385,446.462,234.385,450.383Z" transform="translate(-214.971 -438.371)"/></svg>