<svg xmlns="http://www.w3.org/2000/svg" width="24" height="24" viewBox="0 0 24 24"><defs><style>.a{fill:#fff;opacity:0;}.b{fill:#505050;stroke:#505050;stroke-width:0.4px;}</style></defs><g transform="translate(1.998 0.982)"><rect class="a" width="24" height="24" transform="translate(-1.998 -0.982)"/><g transform="translate(0.002 1.018)"><g transform="translate(0 0)"><path class="b" d="M20.477,16.447l-4.048-2.7A1.182,1.182,0,0,0,14.846,14l-1.179,1.516a.5.5,0,0,1-.646.136l-.224-.124a13.556,13.556,0,0,1-3.533-2.775A13.612,13.612,0,0,1,6.488,9.225L6.365,9A.5.5,0,0,1,6.5,8.352L8.014,7.173a1.182,1.182,0,0,0,.257-1.582l-2.7-4.048a1.175,1.175,0,0,0-1.584-.357L2.294,2.2A2.388,2.388,0,0,0,1.205,3.616c-.61,2.221-.151,6.055,5.5,11.7,4.492,4.492,7.836,5.7,10.135,5.7a5.9,5.9,0,0,0,1.567-.2,2.386,2.386,0,0,0,1.413-1.089l1.018-1.692A1.176,1.176,0,0,0,20.477,16.447Zm-.218,1.243-1.016,1.693a1.723,1.723,0,0,1-1.017.788c-2.051.563-5.633.1-11.054-5.325s-5.888-9-5.325-11.054a1.725,1.725,0,0,1,.789-1.018L4.33,1.759a.51.51,0,0,1,.688.155l1.467,2.2L7.715,5.962a.513.513,0,0,1-.111.687L6.088,7.827a1.167,1.167,0,0,0-.309,1.5l.12.219A14.14,14.14,0,0,0,8.789,13.23a14.155,14.155,0,0,0,3.686,2.889l.219.121a1.167,1.167,0,0,0,1.5-.309l1.179-1.516a.513.513,0,0,1,.687-.111L20.1,17A.51.51,0,0,1,20.259,17.69Z" transform="translate(-1 -1.018)"/><path class="b" d="M282.963,69.994a5.7,5.7,0,0,1,5.7,5.7.335.335,0,0,0,.67,0,6.373,6.373,0,0,0-6.366-6.366.335.335,0,0,0,0,.67Z" transform="translate(-271.675 -66.642)"/><path class="b" d="M282.963,121.194a3.69,3.69,0,0,1,3.686,3.686.335.335,0,0,0,.67,0,4.361,4.361,0,0,0-4.356-4.356.335.335,0,0,0,0,.67Z" transform="translate(-271.645 -115.864)"/><path class="b" d="M282.963,172.394a1.677,1.677,0,0,1,1.675,1.675.335.335,0,1,0,.67,0,2.348,2.348,0,0,0-2.345-2.345.335.335,0,0,0,0,.67Z" transform="translate(-271.637 -165.062)"/></g></g></g></svg>